<svg xmlns="http://www.w3.org/2000/svg" id="Layer_1" data-name="Layer 1" viewBox="0 0 24 24" width="300" height="300" version="1.1" xmlns:xlink="http://www.w3.org/1999/xlink" xmlns:svgjs="http://svgjs.dev/svgjs"><g width="100%" height="100%" transform="matrix(1,0,0,1,0,0)"><path d="M9,0C4.038,0,0,4.037,0,9v9H9c4.962,0,9-4.037,9-9S13.962,0,9,0ZM4.5,10.5c-.828,0-1.5-.672-1.5-1.5s.672-1.5,1.5-1.5,1.5,.672,1.5,1.5-.672,1.5-1.5,1.5Zm4.5,0c-.828,0-1.5-.672-1.5-1.5s.672-1.5,1.5-1.5,1.5,.672,1.5,1.5-.672,1.5-1.5,1.5Zm4.5,0c-.828,0-1.5-.672-1.5-1.5s.672-1.5,1.5-1.5,1.5,.672,1.5,1.5-.672,1.5-1.5,1.5Zm10.5,5.5v8h-8c-2.955,0-5.535-1.615-6.92-4.004h0c6.001-.043,10.872-4.915,10.916-10.916h0c2.389,1.385,4.004,3.965,4.004,6.92Z" fill="#5183fe" fill-opacity="1" data-original-color="#ffffffff" stroke="none" stroke-opacity="1"/></g></svg>